<?xml version="1.0" encoding="UTF-8"?>
<svg fill="black" version="1.1" viewBox="0 0 235.94 188.68" xmlns="http://www.w3.org/2000/svg">
 <g transform="translate(-163.79 -343.49)">
  <g transform="matrix(.5691 0 0 .5691 70.576 148.01)">
   <path d="m164.38 397.19c3.8722 36.99 7.3238 99.805 10 149.91 2.947 8.0597 10.626 13.688 19.812 13.688h147.91v-34.875h60.812v34.875h148.41c9.4828 0 17.315-5.9903 20.031-14.469 1.9652-49.886 2.6275-113.94 6.4375-149.12zm208.47 141c-3.1235 0-5.6562 2.5327-5.6562 5.6562 0 1.8752 0.93846 3.5335 2.3438 4.5625l-1.3125 11.906h9.2812l-1.2812-11.906c1.3893-1.0305 2.2812-2.6999 2.2812-4.5625 0-3.1235-2.5328-5.6562-5.6562-5.6562zm198.5 31.469c-5.739 3.8633-12.626 6.125-20.031 6.125h-148.41v37.344h-60.812v-37.344h-147.91c-7.3001 0-14.117-2.2052-19.812-5.9688l-5 104.62c63.83-6.7942 133.28 0.27355 202.78-0.375 69.131-0.64512 138.31-5.4592 204.91 0.375zm-214.56 3.4062v28.938h31.781v-28.938z" stroke="#000" stroke-linecap="round" stroke-width="1.1749"/>
   <path d="m370.37 343.99c-28.333 0-57.257 1.561-86.781 4.6562-5.5098 0.57764-10 4.46-10 10s4.49 10.576 10 10c56.667-5.9215 113.33-6.4547 170 0 5.5044 0.62699 10-4.46 10-10s-4.4957-9.3723-10-10c-27.143-3.0952-54.885-4.6562-83.219-4.6562zm-85.906 8.2188c3.4518 0 6.25 2.7982 6.25 6.25s-2.7982 6.25-6.25 6.25-6.25-2.7982-6.25-6.25 2.7982-6.25 6.25-6.25zm168.25 0.34375c3.4518 0 6.25 2.7982 6.25 6.25s-2.7982 6.25-6.25 6.25-6.25-2.7982-6.25-6.25 2.7982-6.25 6.25-6.25z" stroke="#000" stroke-linecap="round"/>
   <path d="m284.75 355.73c2.4936 0.39689 4.1816 2.7239 3.7848 5.2176l-4.9695 31.223c-0.3969 2.4936-2.724 4.1816-5.2176 3.7847s-4.1816-2.7239-3.7847-5.2176l4.9695-31.223c0.39689-2.4936 2.7239-4.1816 5.2176-3.7847z" stroke="#000" stroke-linecap="round" stroke-width=".45578"/>
   <path d="m278.88 381.44c-6.1581 0-11.258 4.85-11.662 10.912-0.0171 0.25638-0.0258 6.5149-0.0258 6.7754h5.4062c0-0.23067 0.0122-6.4582 0.0361-6.6819 0.33703-3.157 2.9908-5.5681 6.2451-5.5681 3.2705 0 5.9069 2.4351 6.2191 5.6152 0.0205 0.20855 0.0309 6.4203 0.0309 6.6348h5.4062c0-0.32009-0.013-6.6373-0.0386-6.9512-0.48677-5.9798-5.5192-10.736-11.618-10.736z" color="#000000" style="block-progression:tb;text-indent:0;text-transform:none"/>
   <path d="m452.25 355.62c-2.4936 0.39689-4.1816 2.7239-3.7848 5.2176l4.9695 31.223c0.3969 2.4936 2.724 4.1816 5.2176 3.7847s4.1816-2.7239 3.7847-5.2176l-4.9695-31.223c-0.39689-2.4936-2.7239-4.1816-5.2176-3.7847z" stroke="#000" stroke-linecap="round" stroke-width=".45578"/>
   <path d="m458.13 381.33c6.1581 0 11.258 4.85 11.662 10.912 0.0171 0.25638 0.0258 6.5149 0.0258 6.7754h-5.4062c0-0.23067-0.0122-6.4582-0.0361-6.6819-0.33703-3.157-2.9908-5.5681-6.2451-5.5681-3.2705 0-5.9069 2.4351-6.2191 5.6152-0.0205 0.20855-0.0309 6.4203-0.0309 6.6348h-5.4062c0-0.32009 0.013-6.6373 0.0386-6.9512 0.48677-5.9798 5.5192-10.736 11.618-10.736z" color="#000000" style="block-progression:tb;text-indent:0;text-transform:none"/>
  </g>
 </g>
</svg>
